<svg xmlns="http://www.w3.org/2000/svg" version="1.1" xmlns:xlink="http://www.w3.org/1999/xlink" xmlns:svgjs="http://svgjs.dev/svgjs" width="1000" height="1125" viewBox="0 0 1000 1125"><g transform="matrix(1,0,0,1,1.7053025658242404e-13,0)"><svg viewBox="0 0 320 360" data-background-color="#aaaaaa" preserveAspectRatio="xMidYMid meet" height="1125" width="1000" xmlns="http://www.w3.org/2000/svg" xmlns:xlink="http://www.w3.org/1999/xlink"><g id="tight-bounds" transform="matrix(1,0,0,1,0,0)"><svg viewBox="0 0 320 360" height="360" width="320"><g><svg></svg></g><g><svg viewBox="0 0 320 360" height="360" width="320"><g><path xmlns="http://www.w3.org/2000/svg" d="M320 204.145c-0.08-8.44-5.414-15.128-5.494-23.568-0.04-8.44 5.215-18.631 5.136-27.071-2.667-8.002-9.833-12.7-12.501-20.702-2.667-8.002-0.836-19.348-3.463-27.35-5.016-6.808-13.297-9.037-18.274-15.805-5.016-6.808-6.768-18.154-11.744-24.921-6.847-4.897-15.407-4.499-22.294-9.396-6.847-4.897-12.023-15.168-18.91-20.065-8.042-2.548-16.044 0.518-24.086-2.07-8.042-2.548-16.123-10.709-24.165-13.257-8.44 0.08-15.128 5.414-23.568 5.494-8.44 0.04-18.631-5.215-27.071-5.135-8.002 2.667-12.7 9.833-20.702 12.5-8.002 2.667-19.348 0.836-27.35 3.504-6.808 5.016-9.037 13.297-15.805 18.273-6.808 5.016-18.154 6.768-24.922 11.784-4.897 6.847-4.499 15.407-9.395 22.294-4.897 6.847-15.168 12.023-20.065 18.91-2.548 8.042 0.478 16.044-2.07 24.086-2.548 8.042-10.709 16.123-13.257 24.165 0.04 8.44 5.414 15.128 5.494 23.568 0.04 8.44-5.215 18.631-5.136 27.071 2.667 8.002 9.833 12.7 12.501 20.702 2.667 8.002 0.836 19.348 3.503 27.35 5.016 6.808 13.297 9.037 18.273 15.845 5.016 6.808 6.768 18.154 11.745 24.921 6.847 4.897 15.407 4.499 22.294 9.396 6.847 4.897 12.023 15.168 18.91 20.065 8.042 2.548 16.044-0.478 24.086 2.07 8.042 2.548 16.123 10.709 24.165 13.257 8.44-0.08 15.128-5.414 23.568-5.494 8.44-0.04 18.631 5.215 27.071 5.135 8.002-2.667 12.7-9.833 20.702-12.5 8.002-2.667 19.348-0.836 27.35-3.504 6.808-5.016 9.037-13.297 15.845-18.273 6.808-5.016 18.154-6.768 24.921-11.744 4.897-6.847 4.499-15.407 9.396-22.294 4.897-6.847 15.168-12.023 20.064-18.91 2.548-8.042-0.478-16.044 2.071-24.086 2.468-8.121 10.63-16.203 13.177-24.245zM305.987 227.395c-3.623 7.126-12.501 13.456-16.164 20.582-3.623 7.126-2.03 15.088-5.653 22.215-5.653 5.653-16.044 8.918-21.737 14.57-5.653 5.653-6.569 13.735-12.261 19.388-7.126 3.623-18.034 3.503-25.161 7.166-7.126 3.623-10.51 11.028-17.636 14.651-7.922 1.234-18.233-2.229-26.156-0.996-7.922 1.234-13.416 7.246-21.299 8.48-7.922-1.234-16.641-7.763-24.563-8.997-7.922-1.274-14.969 2.747-22.891 1.473-7.126-3.623-13.456-12.54-20.582-16.163-7.126-3.623-15.088-2.03-22.255-5.654-5.653-5.653-8.918-16.044-14.571-21.736-5.653-5.653-13.735-6.609-19.387-12.262-3.623-7.126-3.503-18.034-7.166-25.161-3.623-7.126-11.028-10.51-14.651-17.636-1.234-7.922 2.229-18.233 0.995-26.156-1.274-7.922-7.246-13.416-8.479-21.298 1.274-7.922 7.763-16.641 8.997-24.564 1.234-7.922-2.747-14.969-1.473-22.891 3.623-7.126 12.54-13.456 16.163-20.582 3.623-7.126 2.03-15.088 5.653-22.254 5.653-5.653 16.044-8.918 21.737-14.571 5.653-5.653 6.609-13.735 12.262-19.388 7.126-3.623 18.034-3.503 25.16-7.166 7.126-3.623 10.51-11.028 17.637-14.651 7.922-1.234 18.233 2.229 26.155 0.996 7.922-1.234 13.416-7.246 21.299-8.48 7.922 1.234 16.641 7.763 24.564 8.997 7.922 1.274 14.969-2.747 22.891-1.473 7.126 3.623 13.456 12.54 20.582 16.163 7.126 3.623 15.088 2.03 22.254 5.654 5.653 5.653 8.918 16.044 14.571 21.736 5.653 5.653 13.735 6.609 19.388 12.262 3.623 7.126 3.503 18.034 7.166 25.161 3.623 7.126 11.028 10.51 14.65 17.636 1.274 7.922-2.229 18.233-0.995 26.156 1.234 7.922 7.246 13.416 8.48 21.298-1.234 7.922-7.763 16.641-8.997 24.564-1.234 7.922 2.747 15.009 1.473 22.931z" fill="#111111" fill-rule="nonzero" stroke="none" stroke-width="1" stroke-linecap="butt" stroke-linejoin="miter" stroke-miterlimit="10" stroke-dasharray="" stroke-dashoffset="0" font-family="none" font-weight="none" font-size="none" text-anchor="none" style="mix-blend-mode: normal" data-fill-palette-color="tertiary"></path></g><g transform="matrix(1,0,0,1,48,159.90686355388004)"><svg viewBox="0 0 224 40.186272892239884" height="40.186272892239884" width="224"><g><svg viewBox="0 0 224 40.186272892239884" height="40.186272892239884" width="224"><g><svg viewBox="0 0 299.5882745469131 53.747036411863995" height="40.186272892239884" width="224"><g transform="matrix(1,0,0,1,75.58827454691315,7.428136001929104)"><svg viewBox="0 0 223.99999999999997 38.890764408005786" height="38.890764408005786" width="223.99999999999997"><g><svg viewBox="0 0 223.99999999999997 38.890764408005786" height="38.890764408005786" width="223.99999999999997"><g><svg viewBox="0 0 223.99999999999997 38.890764408005786" height="38.890764408005786" width="223.99999999999997"><g transform="matrix(1,0,0,1,0,0)"><svg width="223.99999999999997" viewBox="0.9000000357627869 -35.5 206.72999572753906 36" height="38.890764408005786" data-palette-color="#0063db"><g class="undefined-text-0" data-fill-palette-color="primary" id="text-0"><path d="M17.3 0L13.85 0Q11.05 0 9.3-1.07 7.55-2.15 6.75-4.13 5.95-6.1 5.95-8.8L5.95-8.8 5.95-22 2.05-22Q1.55-22 1.23-22.33 0.9-22.65 0.9-23.15L0.9-23.15 0.9-24.85Q0.9-25.35 1.23-25.68 1.55-26 2.05-26L2.05-26 5.95-26 5.95-34.35Q5.95-34.85 6.28-35.18 6.6-35.5 7.1-35.5L7.1-35.5 9.45-35.5Q9.95-35.5 10.28-35.18 10.6-34.85 10.6-34.35L10.6-34.35 10.6-26 16.8-26Q17.35-26 17.65-25.68 17.95-25.35 17.95-24.85L17.95-24.85 17.95-23.15Q17.95-22.65 17.65-22.33 17.35-22 16.8-22L16.8-22 10.6-22 10.6-9.15Q10.6-6.8 11.4-5.45 12.2-4.1 14.25-4.1L14.25-4.1 17.3-4.1Q17.8-4.1 18.13-3.78 18.45-3.45 18.45-2.95L18.45-2.95 18.45-1.15Q18.45-0.65 18.13-0.33 17.8 0 17.3 0L17.3 0ZM30.5 0.5L30.5 0.5Q28 0.5 25.95-0.5 23.9-1.5 22.65-3.2 21.4-4.9 21.4-7.05L21.4-7.05Q21.4-10.5 24.2-12.55 27-14.6 31.5-15.25L31.5-15.25 38.95-16.3 38.95-17.75Q38.95-20.15 37.57-21.5 36.2-22.85 33.1-22.85L33.1-22.85Q30.9-22.85 29.5-21.95 28.1-21.05 27.55-19.65L27.55-19.65Q27.25-18.9 26.5-18.9L26.5-18.9 24.25-18.9Q23.7-18.9 23.42-19.23 23.15-19.55 23.15-20L23.15-20Q23.15-20.75 23.72-21.85 24.3-22.95 25.5-24 26.7-25.05 28.57-25.78 30.45-26.5 33.15-26.5L33.15-26.5Q36.15-26.5 38.2-25.73 40.25-24.95 41.42-23.65 42.6-22.35 43.12-20.7 43.65-19.05 43.65-17.35L43.65-17.35 43.65-1.15Q43.65-0.65 43.32-0.33 43 0 42.5 0L42.5 0 40.2 0Q39.65 0 39.35-0.33 39.05-0.65 39.05-1.15L39.05-1.15 39.05-3.3Q38.4-2.4 37.3-1.53 36.2-0.65 34.55-0.08 32.9 0.5 30.5 0.5ZM31.55-3.25L31.55-3.25Q33.6-3.25 35.3-4.13 37-5 37.97-6.85 38.95-8.7 38.95-11.5L38.95-11.5 38.95-12.9 33.15-12.05Q29.6-11.55 27.8-10.38 26-9.2 26-7.4L26-7.4Q26-6 26.82-5.08 27.65-4.15 28.92-3.7 30.2-3.25 31.55-3.25ZM59.85 0.5L59.85 0.5Q57.05 0.5 55.05-0.2 53.05-0.9 51.8-1.9 50.55-2.9 49.92-3.9 49.3-4.9 49.25-5.5L49.25-5.5Q49.2-6.05 49.6-6.35 50-6.65 50.4-6.65L50.4-6.65 52.65-6.65Q52.9-6.65 53.07-6.58 53.25-6.5 53.55-6.15L53.55-6.15Q54.2-5.45 55-4.75 55.8-4.05 56.97-3.6 58.15-3.15 59.9-3.15L59.9-3.15Q62.45-3.15 64.09-4.13 65.75-5.1 65.75-7L65.75-7Q65.75-8.25 65.07-9 64.4-9.75 62.67-10.35 60.95-10.95 57.95-11.6L57.95-11.6Q54.95-12.3 53.2-13.33 51.45-14.35 50.7-15.78 49.95-17.2 49.95-19L49.95-19Q49.95-20.85 51.05-22.58 52.15-24.3 54.27-25.4 56.4-26.5 59.6-26.5L59.6-26.5Q62.2-26.5 64.05-25.85 65.9-25.2 67.09-24.23 68.3-23.25 68.9-22.3 69.5-21.35 69.55-20.7L69.55-20.7Q69.59-20.2 69.25-19.88 68.9-19.55 68.45-19.55L68.45-19.55 66.34-19.55Q66-19.55 65.77-19.7 65.55-19.85 65.34-20.05L65.34-20.05Q64.84-20.7 64.17-21.35 63.5-22 62.42-22.43 61.35-22.85 59.6-22.85L59.6-22.85Q57.1-22.85 55.85-21.8 54.6-20.75 54.6-19.15L54.6-19.15Q54.6-18.2 55.15-17.45 55.7-16.7 57.25-16.1 58.8-15.5 61.85-14.8L61.85-14.8Q65.15-14.15 67.05-13.05 68.95-11.95 69.75-10.5 70.55-9.05 70.55-7.15L70.55-7.15Q70.55-5.05 69.34-3.3 68.15-1.55 65.75-0.53 63.34 0.5 59.85 0.5ZM79.89 0L77.54 0Q77.04 0 76.72-0.33 76.39-0.65 76.39-1.15L76.39-1.15 76.39-34.35Q76.39-34.85 76.72-35.18 77.04-35.5 77.54-35.5L77.54-35.5 79.89-35.5Q80.39-35.5 80.72-35.18 81.04-34.85 81.04-34.35L81.04-34.35 81.04-16.95 90.89-25.15Q91.49-25.65 91.82-25.83 92.14-26 92.89-26L92.89-26 95.54-26Q95.99-26 96.29-25.7 96.59-25.4 96.59-24.95L96.59-24.95Q96.59-24.75 96.47-24.5 96.34-24.25 95.99-24L95.99-24 84.44-14.4 97.24-1.95Q97.84-1.45 97.84-1.05L97.84-1.05Q97.84-0.6 97.54-0.3 97.24 0 96.79 0L96.79 0 94.19 0Q93.44 0 93.09-0.18 92.74-0.35 92.19-0.85L92.19-0.85 81.04-11.5 81.04-1.15Q81.04-0.65 80.72-0.33 80.39 0 79.89 0L79.89 0Z" fill="#0063db" data-fill-palette-color="primary"></path><path d="M111.04 0.5L111.04 0.5Q108.29 0.5 106.29-0.48 104.29-1.45 103.02-3.13 101.74-4.8 101.12-6.95 100.49-9.1 100.39-11.5L100.39-11.5Q100.34-12.3 100.34-13 100.34-13.7 100.39-14.5L100.39-14.5Q100.49-16.85 101.12-19 101.74-21.15 103.02-22.85 104.29-24.55 106.29-25.53 108.29-26.5 111.04-26.5L111.04-26.5Q113.99-26.5 115.94-25.45 117.89-24.4 119.14-22.85L119.14-22.85 119.14-34.35Q119.14-34.85 119.47-35.18 119.79-35.5 120.29-35.5L120.29-35.5 122.69-35.5Q123.19-35.5 123.52-35.18 123.84-34.85 123.84-34.35L123.84-34.35 123.84-1.15Q123.84-0.65 123.52-0.33 123.19 0 122.69 0L122.69 0 120.44 0Q119.89 0 119.59-0.33 119.29-0.65 119.29-1.15L119.29-1.15 119.29-3.25Q118.04-1.65 116.04-0.58 114.04 0.5 111.04 0.5ZM112.09-3.55L112.09-3.55Q114.59-3.55 116.09-4.7 117.59-5.85 118.34-7.63 119.09-9.4 119.14-11.25L119.14-11.25Q119.19-12.05 119.19-13.18 119.19-14.3 119.14-15.1L119.14-15.1Q119.09-16.85 118.32-18.55 117.54-20.25 116.02-21.35 114.49-22.45 112.09-22.45L112.09-22.45Q109.54-22.45 108.04-21.33 106.54-20.2 105.89-18.38 105.24-16.55 105.14-14.45L105.14-14.45Q105.09-13 105.14-11.55L105.14-11.55Q105.24-9.45 105.89-7.63 106.54-5.8 108.04-4.67 109.54-3.55 112.09-3.55ZM138.54 0.5L138.54 0.5Q136.04 0.5 133.99-0.5 131.94-1.5 130.69-3.2 129.44-4.9 129.44-7.05L129.44-7.05Q129.44-10.5 132.24-12.55 135.04-14.6 139.54-15.25L139.54-15.25 146.99-16.3 146.99-17.75Q146.99-20.15 145.61-21.5 144.24-22.85 141.14-22.85L141.14-22.85Q138.94-22.85 137.54-21.95 136.14-21.05 135.59-19.65L135.59-19.65Q135.29-18.9 134.54-18.9L134.54-18.9 132.29-18.9Q131.74-18.9 131.46-19.23 131.19-19.55 131.19-20L131.19-20Q131.19-20.75 131.76-21.85 132.34-22.95 133.54-24 134.74-25.05 136.61-25.78 138.49-26.5 141.19-26.5L141.19-26.5Q144.19-26.5 146.24-25.73 148.29-24.95 149.46-23.65 150.64-22.35 151.16-20.7 151.69-19.05 151.69-17.35L151.69-17.35 151.69-1.15Q151.69-0.65 151.36-0.33 151.04 0 150.54 0L150.54 0 148.24 0Q147.69 0 147.39-0.33 147.09-0.65 147.09-1.15L147.09-1.15 147.09-3.3Q146.44-2.4 145.34-1.53 144.24-0.65 142.59-0.08 140.94 0.5 138.54 0.5ZM139.59-3.25L139.59-3.25Q141.64-3.25 143.34-4.13 145.04-5 146.01-6.85 146.99-8.7 146.99-11.5L146.99-11.5 146.99-12.9 141.19-12.05Q137.64-11.55 135.84-10.38 134.04-9.2 134.04-7.4L134.04-7.4Q134.04-6 134.86-5.08 135.69-4.15 136.96-3.7 138.24-3.25 139.59-3.25ZM167.89 0.5L167.89 0.5Q165.09 0.5 163.09-0.2 161.08-0.9 159.83-1.9 158.58-2.9 157.96-3.9 157.33-4.9 157.29-5.5L157.29-5.5Q157.23-6.05 157.64-6.35 158.04-6.65 158.43-6.65L158.43-6.65 160.68-6.65Q160.93-6.65 161.11-6.58 161.29-6.5 161.58-6.15L161.58-6.15Q162.23-5.45 163.03-4.75 163.84-4.05 165.01-3.6 166.18-3.15 167.93-3.15L167.93-3.15Q170.48-3.15 172.14-4.13 173.78-5.1 173.78-7L173.78-7Q173.78-8.25 173.11-9 172.43-9.75 170.71-10.35 168.98-10.95 165.98-11.6L165.98-11.6Q162.98-12.3 161.23-13.33 159.48-14.35 158.73-15.78 157.98-17.2 157.98-19L157.98-19Q157.98-20.85 159.08-22.58 160.18-24.3 162.31-25.4 164.43-26.5 167.64-26.5L167.64-26.5Q170.23-26.5 172.09-25.85 173.93-25.2 175.14-24.23 176.34-23.25 176.93-22.3 177.53-21.35 177.59-20.7L177.59-20.7Q177.64-20.2 177.28-19.88 176.93-19.55 176.48-19.55L176.48-19.55 174.39-19.55Q174.03-19.55 173.81-19.7 173.59-19.85 173.39-20.05L173.39-20.05Q172.89-20.7 172.21-21.35 171.53-22 170.46-22.43 169.39-22.85 167.64-22.85L167.64-22.85Q165.14-22.85 163.89-21.8 162.64-20.75 162.64-19.15L162.64-19.15Q162.64-18.2 163.18-17.45 163.73-16.7 165.28-16.1 166.84-15.5 169.89-14.8L169.89-14.8Q173.18-14.15 175.09-13.05 176.98-11.95 177.78-10.5 178.59-9.05 178.59-7.15L178.59-7.15Q178.59-5.05 177.39-3.3 176.18-1.55 173.78-0.53 171.39 0.5 167.89 0.5ZM188.08 0L185.58 0Q185.08 0 184.76-0.33 184.43-0.65 184.43-1.15L184.43-1.15 184.43-34.35Q184.43-34.85 184.76-35.18 185.08-35.5 185.58-35.5L185.58-35.5 188.08-35.5Q188.63-35.5 188.93-35.18 189.23-34.85 189.23-34.35L189.23-34.35 189.23-22.7Q190.58-24.4 192.53-25.45 194.48-26.5 197.48-26.5L197.48-26.5Q200.73-26.5 203.01-25.08 205.28-23.65 206.46-21.13 207.63-18.6 207.63-15.25L207.63-15.25 207.63-1.15Q207.63-0.65 207.33-0.33 207.03 0 206.48 0L206.48 0 203.98 0Q203.48 0 203.16-0.33 202.83-0.65 202.83-1.15L202.83-1.15 202.83-15Q202.83-18.5 201.13-20.48 199.43-22.45 196.13-22.45L196.13-22.45Q193.03-22.45 191.13-20.48 189.23-18.5 189.23-15L189.23-15 189.23-1.15Q189.23-0.65 188.93-0.33 188.63 0 188.08 0L188.08 0Z" fill="#111111" data-fill-palette-color="accent"></path></g></svg></g></svg></g></svg></g></svg></g><g><svg viewBox="0 0 66.40709844852879 53.747036411863995" height="53.747036411863995" width="66.40709844852879"><g><svg xmlns="http://www.w3.org/2000/svg" xmlns:xlink="http://www.w3.org/1999/xlink" version="1.1" x="0" y="0" viewBox="8.600000381469727 13.69999885559082 85.50000762939453 69.20001220703125" enable-background="new 0 0 100 100" xml:space="preserve" height="53.747036411863995" width="66.40709844852879" class="icon-icon-0" data-fill-palette-color="accent" id="icon-0"><circle fill="#111111" cx="63" cy="21.8" r="8.1" data-fill-palette-color="accent"></circle><circle fill="#111111" cx="63" cy="47.8" r="8.1" data-fill-palette-color="accent"></circle><circle fill="#111111" cx="86" cy="47.8" r="8.1" data-fill-palette-color="accent"></circle><circle fill="#111111" cx="63" cy="74.8" r="8.1" data-fill-palette-color="accent"></circle><circle fill="#111111" cx="39.7" cy="21.8" r="8.1" data-fill-palette-color="accent"></circle><circle fill="#111111" cx="39.7" cy="47.8" r="8.1" data-fill-palette-color="accent"></circle><circle fill="#111111" cx="16.7" cy="47.8" r="8.1" data-fill-palette-color="accent"></circle><circle fill="#111111" cx="39.7" cy="74.8" r="8.1" data-fill-palette-color="accent"></circle></svg></g></svg></g></svg></g></svg></g></svg></g></svg></g><defs></defs></svg><rect width="320" height="360" fill="none" stroke="none" visibility="hidden"></rect></g></svg></g></svg>